<?xml version="1.0" standalone="no"?>
<!DOCTYPE svg PUBLIC "-//W3C//DTD SVG 20010904//EN"
 "http://www.w3.org/TR/2001/REC-SVG-20010904/DTD/svg10.dtd">
<svg version="1.0" xmlns="http://www.w3.org/2000/svg"
 width="145.000000pt" height="145.000000pt" viewBox="0 0 145.000000 145.000000"
 preserveAspectRatio="xMidYMid meet">
<metadata>
Created by potrace 1.11, written by Peter Selinger 2001-2013
</metadata>
<g transform="translate(0.000000,145.000000) scale(0.100000,-0.100000)"
fill="#000000" stroke="none">
<path d="M299 1407 c-103 -29 -199 -112 -247 -215 l-27 -57 0 -415 0 -415 32
-66 c39 -80 111 -150 191 -187 l57 -27 415 0 415 0 57 27 c80 37 152 107 191
187 l32 66 0 415 0 415 -27 57 c-37 80 -107 152 -187 191 l-66 32 -395 2
c-292 2 -407 -1 -441 -10z m110 -295 c70 -33 198 -154 260 -248 l48 -72 38 49
c67 89 203 207 281 246 142 70 256 32 280 -94 14 -72 -49 -201 -163 -336 -60
-71 -62 -76 -53 -108 17 -58 12 -150 -10 -186 -32 -54 -105 -80 -170 -63 -67
18 -133 103 -174 224 -5 15 -13 9 -41 -38 -53 -88 -93 -134 -141 -162 -73 -43
-153 -32 -187 25 -21 36 -22 139 -2 196 l14 40 -78 75 c-138 132 -197 253
-171 348 22 82 112 148 185 135 17 -3 54 -16 84 -31z"/>
<path d="M252 1076 c-38 -20 -62 -66 -62 -117 0 -69 42 -141 138 -239 l84 -85
26 32 c34 41 74 56 106 42 50 -23 63 -110 21 -149 -21 -20 -31 -22 -79 -17
l-54 5 -11 -43 c-24 -96 -5 -155 50 -155 68 0 137 67 205 196 40 77 41 80 29
124 -18 69 -58 140 -124 223 -122 153 -252 226 -329 183z"/>
<path d="M1063 1040 c-33 -17 -86 -53 -119 -82 -79 -68 -183 -187 -191 -217
-8 -30 42 -208 79 -283 37 -74 77 -108 127 -108 75 0 111 58 97 153 l-7 44
-52 -5 c-46 -4 -57 -1 -85 23 -40 34 -42 72 -6 114 37 44 82 43 128 -5 l34
-35 61 73 c82 99 131 196 131 258 0 42 -4 52 -31 74 -41 35 -90 34 -166 -4z"/>
<path d="M480 633 c-23 -29 -14 -43 27 -43 27 0 37 14 29 46 -8 31 -29 31 -56
-3z"/>
<path d="M939 638 c-10 -18 -8 -24 7 -35 20 -15 60 -17 68 -4 8 12 -32 61 -49
61 -8 0 -20 -10 -26 -22z"/>
</g>
</svg>
